<mxfile host="app.diagrams.net" modified="2023-09-19T10:33:39.718Z" agent="Mozilla/5.0 (Windows NT 10.0; Win64; x64; rv:109.0) Gecko/20100101 Firefox/117.0" etag="gP2f5kwjyNqaZr6q3P8_" version="21.7.5" type="github">
  <diagram id="C5RBs43oDa-KdzZeNtuy" name="Page-1">
    <mxGraphModel dx="1981" dy="520" grid="1" gridSize="10" guides="1" tooltips="1" connect="1" arrows="1" fold="1" page="1" pageScale="1" pageWidth="827" pageHeight="1169" math="0" shadow="0">
      <root>
        <mxCell id="WIyWlLk6GJQsqaUBKTNV-0" />
        <mxCell id="WIyWlLk6GJQsqaUBKTNV-1" parent="WIyWlLk6GJQsqaUBKTNV-0" />
        <mxCell id="lK6UsOhh-sy1dXCpU7BD-0" value="&lt;div&gt;Game&lt;/div&gt;&lt;div&gt;&lt;br&gt;&lt;/div&gt;&lt;div&gt;&lt;br&gt;&lt;/div&gt;" style="swimlane;fontStyle=1;align=center;verticalAlign=top;childLayout=stackLayout;horizontal=1;startSize=26;horizontalStack=0;resizeParent=1;resizeParentMax=0;resizeLast=0;collapsible=1;marginBottom=0;whiteSpace=wrap;html=1;" vertex="1" parent="WIyWlLk6GJQsqaUBKTNV-1">
          <mxGeometry x="370" y="140" width="160" height="86" as="geometry" />
        </mxCell>
        <mxCell id="lK6UsOhh-sy1dXCpU7BD-1" value="+ field: type" style="text;strokeColor=none;fillColor=none;align=left;verticalAlign=top;spacingLeft=4;spacingRight=4;overflow=hidden;rotatable=0;points=[[0,0.5],[1,0.5]];portConstraint=eastwest;whiteSpace=wrap;html=1;" vertex="1" parent="lK6UsOhh-sy1dXCpU7BD-0">
          <mxGeometry y="26" width="160" height="26" as="geometry" />
        </mxCell>
        <mxCell id="lK6UsOhh-sy1dXCpU7BD-2" value="" style="line;strokeWidth=1;fillColor=none;align=left;verticalAlign=middle;spacingTop=-1;spacingLeft=3;spacingRight=3;rotatable=0;labelPosition=right;points=[];portConstraint=eastwest;strokeColor=inherit;" vertex="1" parent="lK6UsOhh-sy1dXCpU7BD-0">
          <mxGeometry y="52" width="160" height="8" as="geometry" />
        </mxCell>
        <mxCell id="lK6UsOhh-sy1dXCpU7BD-3" value="+ method(type): type" style="text;strokeColor=none;fillColor=none;align=left;verticalAlign=top;spacingLeft=4;spacingRight=4;overflow=hidden;rotatable=0;points=[[0,0.5],[1,0.5]];portConstraint=eastwest;whiteSpace=wrap;html=1;" vertex="1" parent="lK6UsOhh-sy1dXCpU7BD-0">
          <mxGeometry y="60" width="160" height="26" as="geometry" />
        </mxCell>
        <mxCell id="lK6UsOhh-sy1dXCpU7BD-16" value="" style="endArrow=diamondThin;html=1;rounded=0;align=center;verticalAlign=top;endFill=0;labelBackgroundColor=none;endSize=24;startArrow=none;startFill=0;exitX=0.5;exitY=0;exitDx=0;exitDy=0;" edge="1" parent="WIyWlLk6GJQsqaUBKTNV-1" source="lK6UsOhh-sy1dXCpU7BD-4" target="lK6UsOhh-sy1dXCpU7BD-0">
          <mxGeometry relative="1" as="geometry">
            <mxPoint x="230" y="240" as="sourcePoint" />
            <mxPoint x="390" y="240" as="targetPoint" />
            <Array as="points">
              <mxPoint x="320" y="280" />
            </Array>
          </mxGeometry>
        </mxCell>
        <mxCell id="lK6UsOhh-sy1dXCpU7BD-23" value="&lt;div&gt;1..*&lt;/div&gt;&lt;div&gt;&lt;br&gt;&lt;/div&gt;" style="edgeLabel;html=1;align=center;verticalAlign=middle;resizable=0;points=[];rotation=0;container=1;" vertex="1" connectable="0" parent="lK6UsOhh-sy1dXCpU7BD-16">
          <mxGeometry relative="1" as="geometry">
            <mxPoint x="-328" y="23" as="offset" />
          </mxGeometry>
        </mxCell>
        <mxCell id="lK6UsOhh-sy1dXCpU7BD-21" value="" style="endArrow=diamondThin;html=1;rounded=0;align=center;verticalAlign=top;endFill=0;labelBackgroundColor=none;endSize=24;startArrow=none;startFill=0;" edge="1" parent="WIyWlLk6GJQsqaUBKTNV-1" source="lK6UsOhh-sy1dXCpU7BD-8" target="lK6UsOhh-sy1dXCpU7BD-0">
          <mxGeometry relative="1" as="geometry">
            <mxPoint x="280" y="330" as="sourcePoint" />
            <mxPoint x="402" y="236" as="targetPoint" />
            <Array as="points">
              <mxPoint x="550" y="440" />
            </Array>
          </mxGeometry>
        </mxCell>
        <mxCell id="lK6UsOhh-sy1dXCpU7BD-22" value="" style="endArrow=diamondThin;html=1;rounded=0;align=center;verticalAlign=top;endFill=0;labelBackgroundColor=none;endSize=24;startArrow=none;startFill=0;exitX=0.75;exitY=0;exitDx=0;exitDy=0;" edge="1" parent="WIyWlLk6GJQsqaUBKTNV-1" source="lK6UsOhh-sy1dXCpU7BD-12" target="lK6UsOhh-sy1dXCpU7BD-0">
          <mxGeometry relative="1" as="geometry">
            <mxPoint x="475" y="330" as="sourcePoint" />
            <mxPoint x="465" y="236" as="targetPoint" />
            <Array as="points" />
          </mxGeometry>
        </mxCell>
        <mxCell id="lK6UsOhh-sy1dXCpU7BD-50" style="edgeStyle=orthogonalEdgeStyle;rounded=0;orthogonalLoop=1;jettySize=auto;html=1;endArrow=oval;endFill=1;exitX=0.846;exitY=-0.016;exitDx=0;exitDy=0;exitPerimeter=0;" edge="1" parent="WIyWlLk6GJQsqaUBKTNV-1" source="lK6UsOhh-sy1dXCpU7BD-8" target="lK6UsOhh-sy1dXCpU7BD-12">
          <mxGeometry relative="1" as="geometry">
            <Array as="points">
              <mxPoint x="750" y="656" />
              <mxPoint x="780" y="656" />
              <mxPoint x="780" y="576" />
              <mxPoint x="680" y="576" />
              <mxPoint x="680" y="330" />
              <mxPoint x="905" y="330" />
            </Array>
          </mxGeometry>
        </mxCell>
        <mxCell id="lK6UsOhh-sy1dXCpU7BD-51" style="edgeStyle=orthogonalEdgeStyle;rounded=0;orthogonalLoop=1;jettySize=auto;html=1;exitX=0;exitY=0;exitDx=0;exitDy=0;endArrow=oval;endFill=1;" edge="1" parent="WIyWlLk6GJQsqaUBKTNV-1" source="lK6UsOhh-sy1dXCpU7BD-8" target="lK6UsOhh-sy1dXCpU7BD-4">
          <mxGeometry relative="1" as="geometry" />
        </mxCell>
        <mxCell id="lK6UsOhh-sy1dXCpU7BD-86" value="" style="group" vertex="1" connectable="0" parent="WIyWlLk6GJQsqaUBKTNV-1">
          <mxGeometry x="-810" y="320" width="508" height="632" as="geometry" />
        </mxCell>
        <mxCell id="lK6UsOhh-sy1dXCpU7BD-4" value="&lt;div&gt;Tilemap&lt;/div&gt;&lt;div&gt;&lt;br&gt;&lt;/div&gt;&lt;div&gt;&lt;br&gt;&lt;/div&gt;&lt;div&gt;&lt;br&gt;&lt;/div&gt;" style="swimlane;fontStyle=1;align=center;verticalAlign=top;childLayout=stackLayout;horizontal=1;startSize=26;horizontalStack=0;resizeParent=1;resizeParentMax=0;resizeLast=0;collapsible=1;marginBottom=0;whiteSpace=wrap;html=1;rounded=0;" vertex="1" parent="lK6UsOhh-sy1dXCpU7BD-86">
          <mxGeometry width="490" height="632" as="geometry" />
        </mxCell>
        <mxCell id="lK6UsOhh-sy1dXCpU7BD-5" value="&lt;div&gt;- widthX: uint&lt;/div&gt;" style="text;strokeColor=none;fillColor=none;align=left;verticalAlign=top;spacingLeft=4;spacingRight=4;overflow=hidden;rotatable=0;points=[[0,0.5],[1,0.5]];portConstraint=eastwest;whiteSpace=wrap;html=1;" vertex="1" parent="lK6UsOhh-sy1dXCpU7BD-4">
          <mxGeometry y="26" width="490" height="34" as="geometry" />
        </mxCell>
        <mxCell id="lK6UsOhh-sy1dXCpU7BD-30" value="&lt;div&gt;- width: uint&lt;/div&gt;" style="text;strokeColor=none;fillColor=none;align=left;verticalAlign=top;spacingLeft=4;spacingRight=4;overflow=hidden;rotatable=0;points=[[0,0.5],[1,0.5]];portConstraint=eastwest;whiteSpace=wrap;html=1;" vertex="1" parent="lK6UsOhh-sy1dXCpU7BD-4">
          <mxGeometry y="60" width="490" height="34" as="geometry" />
        </mxCell>
        <mxCell id="lK6UsOhh-sy1dXCpU7BD-31" value="&lt;div&gt;- tileMap: uint*&lt;/div&gt;" style="text;strokeColor=none;fillColor=none;align=left;verticalAlign=top;spacingLeft=4;spacingRight=4;overflow=hidden;rotatable=0;points=[[0,0.5],[1,0.5]];portConstraint=eastwest;whiteSpace=wrap;html=1;" vertex="1" parent="lK6UsOhh-sy1dXCpU7BD-4">
          <mxGeometry y="94" width="490" height="34" as="geometry" />
        </mxCell>
        <mxCell id="lK6UsOhh-sy1dXCpU7BD-32" value="&lt;div&gt;- tilePalette: Surface*&lt;/div&gt;" style="text;strokeColor=none;fillColor=none;align=left;verticalAlign=top;spacingLeft=4;spacingRight=4;overflow=hidden;rotatable=0;points=[[0,0.5],[1,0.5]];portConstraint=eastwest;whiteSpace=wrap;html=1;" vertex="1" parent="lK6UsOhh-sy1dXCpU7BD-4">
          <mxGeometry y="128" width="490" height="34" as="geometry" />
        </mxCell>
        <mxCell id="lK6UsOhh-sy1dXCpU7BD-33" value="&lt;div&gt;- TILE_SIZE: const int&lt;/div&gt;" style="text;strokeColor=none;fillColor=none;align=left;verticalAlign=top;spacingLeft=4;spacingRight=4;overflow=hidden;rotatable=0;points=[[0,0.5],[1,0.5]];portConstraint=eastwest;whiteSpace=wrap;html=1;" vertex="1" parent="lK6UsOhh-sy1dXCpU7BD-4">
          <mxGeometry y="162" width="490" height="34" as="geometry" />
        </mxCell>
        <mxCell id="lK6UsOhh-sy1dXCpU7BD-6" value="" style="line;strokeWidth=1;fillColor=none;align=left;verticalAlign=middle;spacingTop=-1;spacingLeft=3;spacingRight=3;rotatable=0;labelPosition=right;points=[];portConstraint=eastwest;strokeColor=inherit;" vertex="1" parent="lK6UsOhh-sy1dXCpU7BD-4">
          <mxGeometry y="196" width="490" height="20" as="geometry" />
        </mxCell>
        <mxCell id="lK6UsOhh-sy1dXCpU7BD-7" value="Tilemap() " style="text;strokeColor=none;fillColor=none;align=left;verticalAlign=top;spacingLeft=4;spacingRight=4;overflow=hidden;rotatable=0;points=[[0,0.5],[1,0.5]];portConstraint=eastwest;whiteSpace=wrap;html=1;" vertex="1" parent="lK6UsOhh-sy1dXCpU7BD-4">
          <mxGeometry y="216" width="490" height="26" as="geometry" />
        </mxCell>
        <mxCell id="lK6UsOhh-sy1dXCpU7BD-35" value="~Tilemap()" style="text;strokeColor=none;fillColor=none;align=left;verticalAlign=top;spacingLeft=4;spacingRight=4;overflow=hidden;rotatable=0;points=[[0,0.5],[1,0.5]];portConstraint=eastwest;whiteSpace=wrap;html=1;" vertex="1" parent="lK6UsOhh-sy1dXCpU7BD-4">
          <mxGeometry y="242" width="490" height="26" as="geometry" />
        </mxCell>
        <mxCell id="lK6UsOhh-sy1dXCpU7BD-34" value="+ IsColliding(x:float, y:float): bool" style="text;strokeColor=none;fillColor=none;align=left;verticalAlign=top;spacingLeft=4;spacingRight=4;overflow=hidden;rotatable=0;points=[[0,0.5],[1,0.5]];portConstraint=eastwest;whiteSpace=wrap;html=1;" vertex="1" parent="lK6UsOhh-sy1dXCpU7BD-4">
          <mxGeometry y="268" width="490" height="26" as="geometry" />
        </mxCell>
        <mxCell id="lK6UsOhh-sy1dXCpU7BD-36" value="+ IsColliding(x:float, y:float, floorPos:float2&amp;amp;): bool" style="text;strokeColor=none;fillColor=none;align=left;verticalAlign=top;spacingLeft=4;spacingRight=4;overflow=hidden;rotatable=0;points=[[0,0.5],[1,0.5]];portConstraint=eastwest;whiteSpace=wrap;html=1;" vertex="1" parent="lK6UsOhh-sy1dXCpU7BD-4">
          <mxGeometry y="294" width="490" height="26" as="geometry" />
        </mxCell>
        <mxCell id="lK6UsOhh-sy1dXCpU7BD-37" value="+ IsColliding(pos:float2, a:const Box&amp;amp;): bool" style="text;strokeColor=none;fillColor=none;align=left;verticalAlign=top;spacingLeft=4;spacingRight=4;overflow=hidden;rotatable=0;points=[[0,0.5],[1,0.5]];portConstraint=eastwest;whiteSpace=wrap;html=1;" vertex="1" parent="lK6UsOhh-sy1dXCpU7BD-4">
          <mxGeometry y="320" width="490" height="26" as="geometry" />
        </mxCell>
        <mxCell id="lK6UsOhh-sy1dXCpU7BD-39" value="+ IsColliding(pos:float2, a:const Box&amp;amp;, floorPos:float2&amp;amp;): bool" style="text;strokeColor=none;fillColor=none;align=left;verticalAlign=top;spacingLeft=4;spacingRight=4;overflow=hidden;rotatable=0;points=[[0,0.5],[1,0.5]];portConstraint=eastwest;whiteSpace=wrap;html=1;" vertex="1" parent="lK6UsOhh-sy1dXCpU7BD-4">
          <mxGeometry y="346" width="490" height="26" as="geometry" />
        </mxCell>
        <mxCell id="lK6UsOhh-sy1dXCpU7BD-40" value="+ Init(sourceFile:const char*, csvPath:const char*): void" style="text;strokeColor=none;fillColor=none;align=left;verticalAlign=top;spacingLeft=4;spacingRight=4;overflow=hidden;rotatable=0;points=[[0,0.5],[1,0.5]];portConstraint=eastwest;whiteSpace=wrap;html=1;" vertex="1" parent="lK6UsOhh-sy1dXCpU7BD-4">
          <mxGeometry y="372" width="490" height="26" as="geometry" />
        </mxCell>
        <mxCell id="lK6UsOhh-sy1dXCpU7BD-41" value="+ Render(screen:Surface*): void" style="text;strokeColor=none;fillColor=none;align=left;verticalAlign=top;spacingLeft=4;spacingRight=4;overflow=hidden;rotatable=0;points=[[0,0.5],[1,0.5]];portConstraint=eastwest;whiteSpace=wrap;html=1;" vertex="1" parent="lK6UsOhh-sy1dXCpU7BD-4">
          <mxGeometry y="398" width="490" height="26" as="geometry" />
        </mxCell>
        <mxCell id="lK6UsOhh-sy1dXCpU7BD-42" value="+ DebugBox(screen:Surface*): void" style="text;strokeColor=none;fillColor=none;align=left;verticalAlign=top;spacingLeft=4;spacingRight=4;overflow=hidden;rotatable=0;points=[[0,0.5],[1,0.5]];portConstraint=eastwest;whiteSpace=wrap;html=1;" vertex="1" parent="lK6UsOhh-sy1dXCpU7BD-4">
          <mxGeometry y="424" width="490" height="26" as="geometry" />
        </mxCell>
        <mxCell id="lK6UsOhh-sy1dXCpU7BD-43" value="+ GetTileColumn(pos:float2): uint" style="text;strokeColor=none;fillColor=none;align=left;verticalAlign=top;spacingLeft=4;spacingRight=4;overflow=hidden;rotatable=0;points=[[0,0.5],[1,0.5]];portConstraint=eastwest;whiteSpace=wrap;html=1;" vertex="1" parent="lK6UsOhh-sy1dXCpU7BD-4">
          <mxGeometry y="450" width="490" height="26" as="geometry" />
        </mxCell>
        <mxCell id="lK6UsOhh-sy1dXCpU7BD-44" value="+ GetWidth(): int" style="text;strokeColor=none;fillColor=none;align=left;verticalAlign=top;spacingLeft=4;spacingRight=4;overflow=hidden;rotatable=0;points=[[0,0.5],[1,0.5]];portConstraint=eastwest;whiteSpace=wrap;html=1;" vertex="1" parent="lK6UsOhh-sy1dXCpU7BD-4">
          <mxGeometry y="476" width="490" height="26" as="geometry" />
        </mxCell>
        <mxCell id="lK6UsOhh-sy1dXCpU7BD-45" value="+ GetHeight(): int" style="text;strokeColor=none;fillColor=none;align=left;verticalAlign=top;spacingLeft=4;spacingRight=4;overflow=hidden;rotatable=0;points=[[0,0.5],[1,0.5]];portConstraint=eastwest;whiteSpace=wrap;html=1;" vertex="1" parent="lK6UsOhh-sy1dXCpU7BD-4">
          <mxGeometry y="502" width="490" height="26" as="geometry" />
        </mxCell>
        <mxCell id="lK6UsOhh-sy1dXCpU7BD-59" value="- ExtractWidthHeight(tilemapRaw:const char*): void" style="text;strokeColor=none;fillColor=none;align=left;verticalAlign=top;spacingLeft=4;spacingRight=4;overflow=hidden;rotatable=0;points=[[0,0.5],[1,0.5]];portConstraint=eastwest;whiteSpace=wrap;html=1;" vertex="1" parent="lK6UsOhh-sy1dXCpU7BD-4">
          <mxGeometry y="528" width="490" height="26" as="geometry" />
        </mxCell>
        <mxCell id="lK6UsOhh-sy1dXCpU7BD-60" value="- LoadCSVFile(csvPath:const char*): void" style="text;strokeColor=none;fillColor=none;align=left;verticalAlign=top;spacingLeft=4;spacingRight=4;overflow=hidden;rotatable=0;points=[[0,0.5],[1,0.5]];portConstraint=eastwest;whiteSpace=wrap;html=1;" vertex="1" parent="lK6UsOhh-sy1dXCpU7BD-4">
          <mxGeometry y="554" width="490" height="26" as="geometry" />
        </mxCell>
        <mxCell id="lK6UsOhh-sy1dXCpU7BD-61" value="- RenderTile(surface:Surface*, screenX:int, screenY:int, sourceX:uint, sourceY:uint): void" style="text;strokeColor=none;fillColor=none;align=left;verticalAlign=top;spacingLeft=4;spacingRight=4;overflow=hidden;rotatable=0;points=[[0,0.5],[1,0.5]];portConstraint=eastwest;whiteSpace=wrap;html=1;" vertex="1" parent="lK6UsOhh-sy1dXCpU7BD-4">
          <mxGeometry y="580" width="490" height="26" as="geometry" />
        </mxCell>
        <mxCell id="lK6UsOhh-sy1dXCpU7BD-62" value="- ConvertCharToInt(pch:const char*, uint&amp;amp; numberForm): void" style="text;strokeColor=none;fillColor=none;align=left;verticalAlign=top;spacingLeft=4;spacingRight=4;overflow=hidden;rotatable=0;points=[[0,0.5],[1,0.5]];portConstraint=eastwest;whiteSpace=wrap;html=1;" vertex="1" parent="lK6UsOhh-sy1dXCpU7BD-4">
          <mxGeometry y="606" width="490" height="26" as="geometry" />
        </mxCell>
        <mxCell id="lK6UsOhh-sy1dXCpU7BD-52" value="&lt;div&gt;1..*&lt;/div&gt;&lt;div&gt;&lt;br&gt;&lt;/div&gt;" style="edgeLabel;html=1;align=center;verticalAlign=middle;resizable=0;points=[];container=0;" vertex="1" connectable="0" parent="lK6UsOhh-sy1dXCpU7BD-86">
          <mxGeometry x="550" y="320" as="geometry">
            <mxPoint x="-42" y="-13" as="offset" />
          </mxGeometry>
        </mxCell>
        <mxCell id="lK6UsOhh-sy1dXCpU7BD-87" value="" style="group" vertex="1" connectable="0" parent="WIyWlLk6GJQsqaUBKTNV-1">
          <mxGeometry x="360" y="560" width="451" height="352" as="geometry" />
        </mxCell>
        <mxCell id="lK6UsOhh-sy1dXCpU7BD-72" value="-ladders" style="text;align=center;fontStyle=1;verticalAlign=middle;spacingLeft=3;spacingRight=3;strokeColor=none;rotatable=0;points=[[0,0.5],[1,0.5]];portConstraint=eastwest;html=1;" vertex="1" parent="lK6UsOhh-sy1dXCpU7BD-87">
          <mxGeometry y="94" width="80" height="26" as="geometry" />
        </mxCell>
        <mxCell id="lK6UsOhh-sy1dXCpU7BD-73" value="-floors" style="text;align=center;fontStyle=1;verticalAlign=middle;spacingLeft=3;spacingRight=3;strokeColor=none;rotatable=0;points=[[0,0.5],[1,0.5]];portConstraint=eastwest;html=1;" vertex="1" parent="lK6UsOhh-sy1dXCpU7BD-87">
          <mxGeometry y="120" width="80" height="26" as="geometry" />
        </mxCell>
        <mxCell id="lK6UsOhh-sy1dXCpU7BD-75" value="-IsCollidingBox" style="text;align=center;fontStyle=1;verticalAlign=middle;spacingLeft=3;spacingRight=3;strokeColor=none;rotatable=0;points=[[0,0.5],[1,0.5]];portConstraint=eastwest;html=1;" vertex="1" parent="lK6UsOhh-sy1dXCpU7BD-87">
          <mxGeometry y="60" width="80" height="26" as="geometry" />
        </mxCell>
        <mxCell id="lK6UsOhh-sy1dXCpU7BD-76" value="-UpdatePosition" style="text;align=center;fontStyle=1;verticalAlign=middle;spacingLeft=3;spacingRight=3;strokeColor=none;rotatable=0;points=[[0,0.5],[1,0.5]];portConstraint=eastwest;html=1;" vertex="1" parent="lK6UsOhh-sy1dXCpU7BD-87">
          <mxGeometry x="320" y="25" width="80" height="26" as="geometry" />
        </mxCell>
        <mxCell id="lK6UsOhh-sy1dXCpU7BD-85" value="" style="group" vertex="1" connectable="0" parent="lK6UsOhh-sy1dXCpU7BD-87">
          <mxGeometry x="209.00295815381332" y="93.00038586895812" width="211.99704184618668" height="258.9996141310419" as="geometry" />
        </mxCell>
        <mxCell id="lK6UsOhh-sy1dXCpU7BD-8" value="&lt;div&gt;Avatar&lt;/div&gt;&lt;div&gt;&lt;br&gt;&lt;/div&gt;" style="swimlane;fontStyle=1;align=center;verticalAlign=top;childLayout=stackLayout;horizontal=1;startSize=26;horizontalStack=0;resizeParent=1;resizeParentMax=0;resizeLast=0;collapsible=1;marginBottom=0;whiteSpace=wrap;html=1;" vertex="1" parent="lK6UsOhh-sy1dXCpU7BD-85">
          <mxGeometry x="11.997041846186676" y="16.99961413104188" width="200" height="268" as="geometry" />
        </mxCell>
        <mxCell id="lK6UsOhh-sy1dXCpU7BD-9" value="- floors: Tilemap*" style="text;strokeColor=none;fillColor=none;align=left;verticalAlign=top;spacingLeft=4;spacingRight=4;overflow=hidden;rotatable=0;points=[[0,0.5],[1,0.5]];portConstraint=eastwest;whiteSpace=wrap;html=1;" vertex="1" parent="lK6UsOhh-sy1dXCpU7BD-8">
          <mxGeometry y="26" width="200" height="26" as="geometry" />
        </mxCell>
        <mxCell id="lK6UsOhh-sy1dXCpU7BD-88" value="- ladders: Tilemap*" style="text;strokeColor=none;fillColor=none;align=left;verticalAlign=top;spacingLeft=4;spacingRight=4;overflow=hidden;rotatable=0;points=[[0,0.5],[1,0.5]];portConstraint=eastwest;whiteSpace=wrap;html=1;" vertex="1" parent="lK6UsOhh-sy1dXCpU7BD-8">
          <mxGeometry y="52" width="200" height="26" as="geometry" />
        </mxCell>
        <mxCell id="lK6UsOhh-sy1dXCpU7BD-26" value="- cam: Camera" style="text;strokeColor=none;fillColor=none;align=left;verticalAlign=top;spacingLeft=4;spacingRight=4;overflow=hidden;rotatable=0;points=[[0,0.5],[1,0.5]];portConstraint=eastwest;whiteSpace=wrap;html=1;" vertex="1" parent="lK6UsOhh-sy1dXCpU7BD-8">
          <mxGeometry y="78" width="200" height="26" as="geometry" />
        </mxCell>
        <mxCell id="lK6UsOhh-sy1dXCpU7BD-10" value="" style="line;strokeWidth=1;fillColor=none;align=left;verticalAlign=middle;spacingTop=-1;spacingLeft=3;spacingRight=3;rotatable=0;labelPosition=right;points=[];portConstraint=eastwest;strokeColor=inherit;" vertex="1" parent="lK6UsOhh-sy1dXCpU7BD-8">
          <mxGeometry y="104" width="200" height="8" as="geometry" />
        </mxCell>
        <mxCell id="lK6UsOhh-sy1dXCpU7BD-11" value="Avatar();" style="text;strokeColor=none;fillColor=none;align=left;verticalAlign=top;spacingLeft=4;spacingRight=4;overflow=hidden;rotatable=0;points=[[0,0.5],[1,0.5]];portConstraint=eastwest;whiteSpace=wrap;html=1;" vertex="1" parent="lK6UsOhh-sy1dXCpU7BD-8">
          <mxGeometry y="112" width="200" height="26" as="geometry" />
        </mxCell>
        <mxCell id="lK6UsOhh-sy1dXCpU7BD-55" value="~Avatar();" style="text;strokeColor=none;fillColor=none;align=left;verticalAlign=top;spacingLeft=4;spacingRight=4;overflow=hidden;rotatable=0;points=[[0,0.5],[1,0.5]];portConstraint=eastwest;whiteSpace=wrap;html=1;" vertex="1" parent="lK6UsOhh-sy1dXCpU7BD-8">
          <mxGeometry y="138" width="200" height="26" as="geometry" />
        </mxCell>
        <mxCell id="lK6UsOhh-sy1dXCpU7BD-54" value="+ GetPos(): float2" style="text;strokeColor=none;fillColor=none;align=left;verticalAlign=top;spacingLeft=4;spacingRight=4;overflow=hidden;rotatable=0;points=[[0,0.5],[1,0.5]];portConstraint=eastwest;whiteSpace=wrap;html=1;" vertex="1" parent="lK6UsOhh-sy1dXCpU7BD-8">
          <mxGeometry y="164" width="200" height="26" as="geometry" />
        </mxCell>
        <mxCell id="lK6UsOhh-sy1dXCpU7BD-56" value="+ Jump(): void" style="text;strokeColor=none;fillColor=none;align=left;verticalAlign=top;spacingLeft=4;spacingRight=4;overflow=hidden;rotatable=0;points=[[0,0.5],[1,0.5]];portConstraint=eastwest;whiteSpace=wrap;html=1;" vertex="1" parent="lK6UsOhh-sy1dXCpU7BD-8">
          <mxGeometry y="190" width="200" height="26" as="geometry" />
        </mxCell>
        <mxCell id="lK6UsOhh-sy1dXCpU7BD-58" value="+ GetInput(input:int2): void" style="text;strokeColor=none;fillColor=none;align=left;verticalAlign=top;spacingLeft=4;spacingRight=4;overflow=hidden;rotatable=0;points=[[0,0.5],[1,0.5]];portConstraint=eastwest;whiteSpace=wrap;html=1;" vertex="1" parent="lK6UsOhh-sy1dXCpU7BD-8">
          <mxGeometry y="216" width="200" height="26" as="geometry" />
        </mxCell>
        <mxCell id="lK6UsOhh-sy1dXCpU7BD-57" value="+ Update(deltaTime:float): void" style="text;strokeColor=none;fillColor=none;align=left;verticalAlign=top;spacingLeft=4;spacingRight=4;overflow=hidden;rotatable=0;points=[[0,0.5],[1,0.5]];portConstraint=eastwest;whiteSpace=wrap;html=1;" vertex="1" parent="lK6UsOhh-sy1dXCpU7BD-8">
          <mxGeometry y="242" width="200" height="26" as="geometry" />
        </mxCell>
        <mxCell id="lK6UsOhh-sy1dXCpU7BD-46" value="&lt;div&gt;1&lt;/div&gt;&lt;div&gt;&lt;br&gt;&lt;/div&gt;" style="edgeLabel;html=1;align=center;verticalAlign=middle;resizable=0;points=[];" vertex="1" connectable="0" parent="lK6UsOhh-sy1dXCpU7BD-85">
          <mxGeometry x="12" y="3" as="geometry">
            <mxPoint x="-12" y="5" as="offset" />
          </mxGeometry>
        </mxCell>
        <mxCell id="lK6UsOhh-sy1dXCpU7BD-83" value="&lt;div&gt;1&lt;/div&gt;&lt;div&gt;&lt;br&gt;&lt;/div&gt;" style="edgeLabel;html=1;align=center;verticalAlign=middle;resizable=0;points=[];" vertex="1" connectable="0" parent="lK6UsOhh-sy1dXCpU7BD-85">
          <mxGeometry x="292" y="3" as="geometry">
            <mxPoint x="-91" y="-3" as="offset" />
          </mxGeometry>
        </mxCell>
        <mxCell id="lK6UsOhh-sy1dXCpU7BD-77" value="-cam" style="text;align=center;fontStyle=1;verticalAlign=middle;spacingLeft=3;spacingRight=3;strokeColor=none;rotatable=0;points=[[0,0.5],[1,0.5]];portConstraint=eastwest;html=1;" vertex="1" parent="WIyWlLk6GJQsqaUBKTNV-1">
          <mxGeometry x="701" y="540" width="80" height="30" as="geometry" />
        </mxCell>
        <mxCell id="lK6UsOhh-sy1dXCpU7BD-102" value="" style="group" vertex="1" connectable="0" parent="WIyWlLk6GJQsqaUBKTNV-1">
          <mxGeometry x="700" y="150" width="410" height="216" as="geometry" />
        </mxCell>
        <mxCell id="lK6UsOhh-sy1dXCpU7BD-63" value="&lt;div&gt;1&lt;/div&gt;&lt;div&gt;&lt;br&gt;&lt;/div&gt;" style="text;whiteSpace=wrap;html=1;container=0;" vertex="1" parent="lK6UsOhh-sy1dXCpU7BD-102">
          <mxGeometry x="40" y="190" width="40" height="50" as="geometry" />
        </mxCell>
        <mxCell id="lK6UsOhh-sy1dXCpU7BD-81" value="" style="group" vertex="1" connectable="0" parent="lK6UsOhh-sy1dXCpU7BD-102">
          <mxGeometry width="410" height="164" as="geometry" />
        </mxCell>
        <mxCell id="lK6UsOhh-sy1dXCpU7BD-48" value="&lt;div&gt;1&lt;/div&gt;&lt;div&gt;&lt;br&gt;&lt;/div&gt;" style="edgeLabel;html=1;align=center;verticalAlign=middle;resizable=0;points=[];" vertex="1" connectable="0" parent="lK6UsOhh-sy1dXCpU7BD-81">
          <mxGeometry x="140.00295815381332" y="-17.99961413104188" as="geometry">
            <mxPoint x="-27" y="30" as="offset" />
          </mxGeometry>
        </mxCell>
        <mxCell id="lK6UsOhh-sy1dXCpU7BD-12" value="&lt;div&gt;Camera&lt;/div&gt;&lt;div&gt;&lt;br&gt;&lt;/div&gt;" style="swimlane;fontStyle=1;align=center;verticalAlign=top;childLayout=stackLayout;horizontal=1;startSize=26;horizontalStack=0;resizeParent=1;resizeParentMax=0;resizeLast=0;collapsible=1;marginBottom=0;whiteSpace=wrap;html=1;container=0;" vertex="1" parent="lK6UsOhh-sy1dXCpU7BD-81">
          <mxGeometry width="410" height="164" as="geometry" />
        </mxCell>
        <mxCell id="lK6UsOhh-sy1dXCpU7BD-13" value="- pos: float2" style="text;strokeColor=none;fillColor=none;align=left;verticalAlign=top;spacingLeft=4;spacingRight=4;overflow=hidden;rotatable=0;points=[[0,0.5],[1,0.5]];portConstraint=eastwest;whiteSpace=wrap;html=1;" vertex="1" parent="lK6UsOhh-sy1dXCpU7BD-81">
          <mxGeometry y="26" width="410" height="26" as="geometry" />
        </mxCell>
        <mxCell id="lK6UsOhh-sy1dXCpU7BD-14" value="" style="line;strokeWidth=1;fillColor=none;align=left;verticalAlign=middle;spacingTop=-1;spacingLeft=3;spacingRight=3;rotatable=0;labelPosition=right;points=[];portConstraint=eastwest;strokeColor=inherit;" vertex="1" parent="lK6UsOhh-sy1dXCpU7BD-81">
          <mxGeometry y="52" width="410" height="8" as="geometry" />
        </mxCell>
        <mxCell id="lK6UsOhh-sy1dXCpU7BD-15" value="Camera()" style="text;strokeColor=none;fillColor=none;align=left;verticalAlign=top;spacingLeft=4;spacingRight=4;overflow=hidden;rotatable=0;points=[[0,0.5],[1,0.5]];portConstraint=eastwest;whiteSpace=wrap;html=1;" vertex="1" parent="lK6UsOhh-sy1dXCpU7BD-81">
          <mxGeometry y="60" width="410" height="26" as="geometry" />
        </mxCell>
        <mxCell id="lK6UsOhh-sy1dXCpU7BD-80" value="+ Init(screenPos : float2 type, tilemapSurface : Sprite*): void" style="text;strokeColor=none;fillColor=none;align=left;verticalAlign=top;spacingLeft=4;spacingRight=4;overflow=hidden;rotatable=0;points=[[0,0.5],[1,0.5]];portConstraint=eastwest;whiteSpace=wrap;html=1;" vertex="1" parent="lK6UsOhh-sy1dXCpU7BD-81">
          <mxGeometry y="86" width="410" height="26" as="geometry" />
        </mxCell>
        <mxCell id="lK6UsOhh-sy1dXCpU7BD-90" value="+ UpdatePosition(screen: Surface*): void" style="text;strokeColor=none;fillColor=none;align=left;verticalAlign=top;spacingLeft=4;spacingRight=4;overflow=hidden;rotatable=0;points=[[0,0.5],[1,0.5]];portConstraint=eastwest;whiteSpace=wrap;html=1;" vertex="1" parent="lK6UsOhh-sy1dXCpU7BD-81">
          <mxGeometry y="112" width="410" height="26" as="geometry" />
        </mxCell>
        <mxCell id="lK6UsOhh-sy1dXCpU7BD-89" value="+ Render(screen: Surface*): void" style="text;strokeColor=none;fillColor=none;align=left;verticalAlign=top;spacingLeft=4;spacingRight=4;overflow=hidden;rotatable=0;points=[[0,0.5],[1,0.5]];portConstraint=eastwest;whiteSpace=wrap;html=1;" vertex="1" parent="lK6UsOhh-sy1dXCpU7BD-81">
          <mxGeometry y="138" width="410" height="26" as="geometry" />
        </mxCell>
        <mxCell id="lK6UsOhh-sy1dXCpU7BD-103" value="Box" style="swimlane;fontStyle=1;align=center;verticalAlign=top;childLayout=stackLayout;horizontal=1;startSize=26;horizontalStack=0;resizeParent=1;resizeParentMax=0;resizeLast=0;collapsible=1;marginBottom=0;whiteSpace=wrap;html=1;" vertex="1" parent="WIyWlLk6GJQsqaUBKTNV-1">
          <mxGeometry x="170" y="352" width="250" height="138" as="geometry" />
        </mxCell>
        <mxCell id="lK6UsOhh-sy1dXCpU7BD-112" value="" style="endArrow=diamondThin;endFill=1;endSize=24;html=1;rounded=0;" edge="1" parent="lK6UsOhh-sy1dXCpU7BD-103" target="lK6UsOhh-sy1dXCpU7BD-8">
          <mxGeometry width="160" relative="1" as="geometry">
            <mxPoint x="220" y="18" as="sourcePoint" />
            <mxPoint x="380" y="18" as="targetPoint" />
          </mxGeometry>
        </mxCell>
        <mxCell id="lK6UsOhh-sy1dXCpU7BD-104" value="+ min: float2" style="text;strokeColor=none;fillColor=none;align=left;verticalAlign=top;spacingLeft=4;spacingRight=4;overflow=hidden;rotatable=0;points=[[0,0.5],[1,0.5]];portConstraint=eastwest;whiteSpace=wrap;html=1;" vertex="1" parent="lK6UsOhh-sy1dXCpU7BD-103">
          <mxGeometry y="26" width="250" height="26" as="geometry" />
        </mxCell>
        <mxCell id="lK6UsOhh-sy1dXCpU7BD-107" value="+ max: float2" style="text;strokeColor=none;fillColor=none;align=left;verticalAlign=top;spacingLeft=4;spacingRight=4;overflow=hidden;rotatable=0;points=[[0,0.5],[1,0.5]];portConstraint=eastwest;whiteSpace=wrap;html=1;" vertex="1" parent="lK6UsOhh-sy1dXCpU7BD-103">
          <mxGeometry y="52" width="250" height="26" as="geometry" />
        </mxCell>
        <mxCell id="lK6UsOhh-sy1dXCpU7BD-105" value="" style="line;strokeWidth=1;fillColor=none;align=left;verticalAlign=middle;spacingTop=-1;spacingLeft=3;spacingRight=3;rotatable=0;labelPosition=right;points=[];portConstraint=eastwest;strokeColor=inherit;" vertex="1" parent="lK6UsOhh-sy1dXCpU7BD-103">
          <mxGeometry y="78" width="250" height="8" as="geometry" />
        </mxCell>
        <mxCell id="lK6UsOhh-sy1dXCpU7BD-106" value="Box(min: const float2,max: float2)" style="text;strokeColor=none;fillColor=none;align=left;verticalAlign=top;spacingLeft=4;spacingRight=4;overflow=hidden;rotatable=0;points=[[0,0.5],[1,0.5]];portConstraint=eastwest;whiteSpace=wrap;html=1;" vertex="1" parent="lK6UsOhh-sy1dXCpU7BD-103">
          <mxGeometry y="86" width="250" height="26" as="geometry" />
        </mxCell>
        <mxCell id="lK6UsOhh-sy1dXCpU7BD-108" value="Box()" style="text;strokeColor=none;fillColor=none;align=left;verticalAlign=top;spacingLeft=4;spacingRight=4;overflow=hidden;rotatable=0;points=[[0,0.5],[1,0.5]];portConstraint=eastwest;whiteSpace=wrap;html=1;" vertex="1" parent="lK6UsOhh-sy1dXCpU7BD-103">
          <mxGeometry y="112" width="250" height="26" as="geometry" />
        </mxCell>
        <mxCell id="lK6UsOhh-sy1dXCpU7BD-109" value="" style="endArrow=diamondThin;endFill=1;endSize=24;html=1;rounded=0;" edge="1" parent="WIyWlLk6GJQsqaUBKTNV-1" source="lK6UsOhh-sy1dXCpU7BD-103" target="lK6UsOhh-sy1dXCpU7BD-12">
          <mxGeometry width="160" relative="1" as="geometry">
            <mxPoint x="420" y="390" as="sourcePoint" />
            <mxPoint x="580" y="390" as="targetPoint" />
          </mxGeometry>
        </mxCell>
        <mxCell id="lK6UsOhh-sy1dXCpU7BD-113" style="edgeStyle=orthogonalEdgeStyle;rounded=0;orthogonalLoop=1;jettySize=auto;html=1;exitX=0;exitY=0.5;exitDx=0;exitDy=0;endArrow=diamondThin;endFill=1;entryX=1;entryY=0.5;entryDx=0;entryDy=0;endSize=24;" edge="1" parent="WIyWlLk6GJQsqaUBKTNV-1" source="lK6UsOhh-sy1dXCpU7BD-104" target="lK6UsOhh-sy1dXCpU7BD-35">
          <mxGeometry relative="1" as="geometry" />
        </mxCell>
      </root>
    </mxGraphModel>
  </diagram>
</mxfile>
